# xmcd
#
# Track frame offsets:
#	150
#	22096
#	39329
#	60366
#	75805
#	86929
#	103128
#	116279
#	133453
#	145103
#
# Disc length: 2082 seconds
#
# Revision: 1
# Processed by: cddbd v1.5.2PL0 Copyright (c) Steve Scherf et al.
# Submitted via: audiograbber 1.83.01
#
DISCID=7e08200a
DTITLE=Lowell George - Thanks I'll Eat It Her
DYEAR=1979
DGENRE=R&B
TTITLE0=What Do You Want the Girl to Do?
TTITLE1=Honest Man
TTITLE2=Two Trains
TTITLE3=I Can't Stand the Rain
TTITLE4=Cheek to Cheek
TTITLE5=Easy Money
TTITLE6=20 Million Things
TTITLE7=Find a River
TTITLE8=Himmler's Ring
TTITLE9=Heartache
EXTD=
EXTT0=
EXTT1=
EXTT2=
EXTT3=
EXTT4=
EXTT5=
EXTT6=
EXTT7=
EXTT8=
EXTT9=
PLAYORDER=
